<svg width="72" height="72" viewBox="0 0 72 72" fill="none" xmlns="http://www.w3.org/2000/svg">
<circle cx="36" cy="36" r="36" fill="url(#paint0_linear_1180_790)"/>
<path d="M34.2133 34.2134C33.7377 34.6866 33.4692 35.3291 33.4667 36C33.4667 36.6719 33.7336 37.3163 34.2087 37.7914C34.6838 38.2665 35.3281 38.5334 36 38.5334C36.6709 38.5309 37.3135 38.2624 37.7867 37.7867" stroke="white" stroke-width="2" stroke-linecap="round" stroke-linejoin="round"/>
<path d="M36 28.4C34.4968 28.4 33.0274 28.8458 31.7776 29.6809C30.5278 30.516 29.5537 31.7029 28.9785 33.0916C28.4033 34.4803 28.2528 36.0085 28.546 37.4827C28.8392 38.957 29.5631 40.3112 30.626 41.374C31.6888 42.4369 33.043 43.1607 34.5173 43.454C35.9915 43.7472 37.5196 43.5967 38.9084 43.0215C40.2971 42.4463 41.484 41.4722 42.3191 40.2224C43.1542 38.9725 43.6 37.5032 43.6 36" stroke="white" stroke-width="2" stroke-linecap="round" stroke-linejoin="round"/>
<path d="M36 23.3334C33.4948 23.3334 31.0458 24.0763 28.9628 25.4681C26.8797 26.8599 25.2562 28.8382 24.2975 31.1527C23.3388 33.4672 23.088 36.0141 23.5767 38.4712C24.0655 40.9283 25.2718 43.1853 27.0433 44.9567C28.8148 46.7282 31.0717 47.9346 33.5288 48.4233C35.9859 48.9121 38.5328 48.6612 40.8473 47.7025C43.1618 46.7438 45.1401 45.1203 46.5319 43.0373C47.9238 40.9542 48.6667 38.5053 48.6667 36M40.7 31.3014L37.2667 34.7334" stroke="white" stroke-width="2" stroke-linecap="round" stroke-linejoin="round"/>
<path d="M47.92 27.7921L43.6 28.4001L44.208 24.0801C44.2124 24.0299 44.2018 23.9795 44.1775 23.9354C44.1532 23.8913 44.1163 23.8554 44.0715 23.8324C44.0267 23.8093 43.9761 23.8002 43.926 23.8061C43.876 23.8119 43.8289 23.8326 43.7907 23.8654L40.9267 26.7148C40.6325 27.011 40.4161 27.3755 40.2968 27.7756C40.1774 28.1757 40.1589 28.5991 40.2427 29.0081L40.6987 31.3014L42.992 31.7561C43.401 31.8399 43.8244 31.8213 44.2245 31.702C44.6246 31.5826 44.989 31.3663 45.2853 31.0721L48.1333 28.2094C48.1662 28.1711 48.187 28.1238 48.1928 28.0737C48.1987 28.0235 48.1894 27.9727 48.1662 27.9278C48.143 27.883 48.1069 27.8461 48.0625 27.8219C48.0182 27.7977 47.9676 27.7873 47.9173 27.7921" stroke="white" stroke-width="2" stroke-linecap="round" stroke-linejoin="round"/>
<defs>
<linearGradient id="paint0_linear_1180_790" x1="0" y1="36" x2="72" y2="36" gradientUnits="userSpaceOnUse">
<stop stop-color="#47DAFF"/>
<stop offset="0.25" stop-color="#38CAFF"/>
<stop offset="0.5" stop-color="#5CB7FF"/>
<stop offset="0.75" stop-color="#8DA0FF"/>
<stop offset="1" stop-color="#BA83F0"/>
</linearGradient>
</defs>
</svg>
