<svg width="72" height="72" viewBox="0 0 72 72" fill="none" xmlns="http://www.w3.org/2000/svg">
<g clip-path="url(#clip0_80_3094)">
<path d="M55.125 0H16.875C7.55519 0 0 7.55519 0 16.875V55.125C0 64.4448 7.55519 72 16.875 72H55.125C64.4448 72 72 64.4448 72 55.125V16.875C72 7.55519 64.4448 0 55.125 0Z" fill="url(#paint0_radial_80_3094)"/>
<path d="M55.125 0H16.875C7.55519 0 0 7.55519 0 16.875V55.125C0 64.4448 7.55519 72 16.875 72H55.125C64.4448 72 72 64.4448 72 55.125V16.875C72 7.55519 64.4448 0 55.125 0Z" fill="url(#paint1_radial_80_3094)"/>
<path d="M36.0021 13C29.7557 13 28.9717 13.0274 26.5185 13.1389C24.0699 13.2512 22.3985 13.6387 20.9362 14.2075C19.4232 14.7949 18.14 15.5808 16.8617 16.8596C15.5822 18.1381 14.7963 19.4213 14.207 20.9335C13.6366 22.3963 13.2486 24.0684 13.1385 26.5158C13.0287 28.9692 13 29.7535 13 36C13 42.2465 13.0276 43.028 13.1389 45.4812C13.2516 47.9297 13.6392 49.6011 14.2075 51.0635C14.7954 52.5764 15.5813 53.8596 16.8601 55.1379C18.1382 56.4174 19.4214 57.2051 20.9332 57.7925C22.3967 58.3613 24.0683 58.7488 26.5164 58.8611C28.9698 58.9726 29.7532 59 35.9993 59C42.2463 59 43.0279 58.9726 45.4811 58.8611C47.9296 58.7488 49.6029 58.3613 51.0664 57.7925C52.5786 57.2051 53.86 56.4174 55.1378 55.1379C56.4173 53.8596 57.203 52.5764 57.7925 51.0642C58.3578 49.6011 58.7461 47.9293 58.8611 45.4817C58.9712 43.0285 59 42.2465 59 36C59 29.7535 58.9712 28.9697 58.8611 26.5163C58.7461 24.0677 58.3578 22.3966 57.7925 20.9342C57.203 19.4213 56.4173 18.1381 55.1378 16.8596C53.8586 15.5803 52.5791 14.7944 51.065 14.2077C49.5988 13.6387 47.9264 13.2509 45.4778 13.1389C43.0244 13.0274 42.2433 13 35.9949 13H36.0021ZM33.9387 17.1448C34.5512 17.1439 35.2346 17.1448 36.0021 17.1448C42.1433 17.1448 42.871 17.1669 45.2961 17.277C47.5386 17.3796 48.7558 17.7543 49.5666 18.0691C50.64 18.4859 51.4052 18.9843 52.2097 19.7895C53.0147 20.5945 53.5129 21.3611 53.9308 22.4345C54.2457 23.2441 54.6208 24.4612 54.7229 26.7037C54.8331 29.1284 54.857 29.8565 54.857 35.9947C54.857 42.1329 54.8331 42.8613 54.7229 45.2857C54.6203 47.5282 54.2457 48.7453 53.9308 49.5551C53.514 50.6285 53.0147 51.3928 52.2097 52.1974C51.4047 53.0023 50.6404 53.5005 49.5666 53.9175C48.7567 54.2338 47.5386 54.6075 45.2961 54.7101C42.8715 54.8203 42.1433 54.8442 36.0021 54.8442C29.8606 54.8442 29.1327 54.8203 26.7082 54.7101C24.4657 54.6066 23.2486 54.2319 22.4371 53.917C21.3639 53.5001 20.5971 53.0019 19.7921 52.1969C18.9871 51.3919 18.489 50.6272 18.071 49.5533C17.7562 48.7435 17.381 47.5263 17.2789 45.2839C17.1688 42.8592 17.1467 42.131 17.1467 35.989C17.1467 29.8471 17.1688 29.1226 17.2789 26.698C17.3815 24.4555 17.7562 23.2383 18.071 22.4276C18.488 21.3542 18.9871 20.5876 19.7924 19.7826C20.5974 18.9776 21.3639 18.4792 22.4374 18.0616C23.2481 17.7453 24.4657 17.3716 26.7082 17.2685C28.83 17.1726 29.6522 17.1439 33.9387 17.139V17.1448ZM48.2795 20.9637C46.7557 20.9637 45.5195 22.1988 45.5195 23.7227C45.5195 25.2465 46.7557 26.4827 48.2795 26.4827C49.8032 26.4827 51.0395 25.2465 51.0395 23.7227C51.0395 22.199 49.8032 20.9627 48.2795 20.9627V20.9637ZM36.0021 24.1885C29.4793 24.1885 24.1906 29.477 24.1906 36C24.1906 42.523 29.4793 47.809 36.0021 47.809C42.5251 47.809 47.8119 42.523 47.8119 36C47.8119 29.4773 42.5246 24.1885 36.0016 24.1885H36.0021ZM36.0021 28.3333C40.2361 28.3333 43.6689 31.7655 43.6689 36C43.6689 40.234 40.2361 43.6667 36.0021 43.6667C31.7678 43.6667 28.3355 40.234 28.3355 36C28.3355 31.7655 31.7678 28.3333 36.0021 28.3333Z" fill="#FCFCFC"/>
</g>
<defs>
<radialGradient id="paint0_radial_80_3094" cx="0" cy="0" r="1" gradientUnits="userSpaceOnUse" gradientTransform="translate(19.125 77.5454) rotate(-90) scale(71.3573 66.368)">
<stop stop-color="#FFDD55"/>
<stop offset="0.1" stop-color="#FFDD55"/>
<stop offset="0.5" stop-color="#FF543E"/>
<stop offset="1" stop-color="#C837AB"/>
</radialGradient>
<radialGradient id="paint1_radial_80_3094" cx="0" cy="0" r="1" gradientUnits="userSpaceOnUse" gradientTransform="translate(-12.0603 5.18653) rotate(78.681) scale(31.8971 131.481)">
<stop stop-color="#3771C8"/>
<stop offset="0.128" stop-color="#3771C8"/>
<stop offset="1" stop-color="#6600FF" stop-opacity="0"/>
</radialGradient>
<clipPath id="clip0_80_3094">
<rect width="72" height="72" rx="36" fill="white"/>
</clipPath>
</defs>
</svg>
