<svg width="72" height="72" viewBox="0 0 72 72" fill="none" xmlns="http://www.w3.org/2000/svg">
<circle cx="36" cy="36" r="36" fill="url(#paint0_linear_1180_782)"/>
<mask id="mask0_1180_782" style="mask-type:alpha" maskUnits="userSpaceOnUse" x="20" y="20" width="32" height="32">
<rect x="20" y="20" width="32" height="32" fill="#D9D9D9"/>
</mask>
<g mask="url(#mask0_1180_782)">
<path d="M34.5388 50.5388V49.0776C31.4947 48.7367 28.8828 47.4764 26.7032 45.2968C24.5236 43.1172 23.2633 40.5053 22.9224 37.4612H21.4612C21.0472 37.4612 20.7002 37.3212 20.4201 37.0411C20.14 36.761 20 36.414 20 36C20 35.586 20.14 35.239 20.4201 34.9589C20.7002 34.6788 21.0472 34.5388 21.4612 34.5388H22.9224C23.2633 31.4947 24.5236 28.8828 26.7032 26.7032C28.8828 24.5236 31.4947 23.2633 34.5388 22.9224V21.4612C34.5388 21.0472 34.6788 20.7002 34.9589 20.4201C35.239 20.14 35.586 20 36 20C36.414 20 36.761 20.14 37.0411 20.4201C37.3212 20.7002 37.4612 21.0472 37.4612 21.4612V22.9224C40.5053 23.2633 43.1172 24.5236 45.2968 26.7032C47.4764 28.8828 48.7367 31.4947 49.0776 34.5388H50.5388C50.9528 34.5388 51.2999 34.6788 51.5799 34.9589C51.86 35.239 52 35.586 52 36C52 36.414 51.86 36.761 51.5799 37.0411C51.2999 37.3212 50.9528 37.4612 50.5388 37.4612H49.0776C48.7367 40.5053 47.4764 43.1172 45.2968 45.2968C43.1172 47.4764 40.5053 48.7367 37.4612 49.0776V50.5388C37.4612 50.9528 37.3212 51.2999 37.0411 51.5799C36.761 51.86 36.414 52 36 52C35.586 52 35.239 51.86 34.9589 51.5799C34.6788 51.2999 34.5388 50.9528 34.5388 50.5388ZM36 46.2283C38.825 46.2283 41.2359 45.2298 43.2329 43.2329C45.2298 41.2359 46.2283 38.825 46.2283 36C46.2283 33.175 45.2298 30.7641 43.2329 28.7671C41.2359 26.7702 38.825 25.7717 36 25.7717C33.175 25.7717 30.7641 26.7702 28.7671 28.7671C26.7702 30.7641 25.7717 33.175 25.7717 36C25.7717 38.825 26.7702 41.2359 28.7671 43.2329C30.7641 45.2298 33.175 46.2283 36 46.2283ZM36 41.8447C34.3927 41.8447 33.0167 41.2725 31.8721 40.1279C30.7275 38.9833 30.1553 37.6073 30.1553 36C30.1553 34.3927 30.7275 33.0167 31.8721 31.8721C33.0167 30.7275 34.3927 30.1553 36 30.1553C37.6073 30.1553 38.9833 30.7275 40.1279 31.8721C41.2725 33.0167 41.8447 34.3927 41.8447 36C41.8447 37.6073 41.2725 38.9833 40.1279 40.1279C38.9833 41.2725 37.6073 41.8447 36 41.8447ZM36 38.9224C36.8037 38.9224 37.4916 38.6362 38.0639 38.0639C38.6362 37.4916 38.9224 36.8037 38.9224 36C38.9224 35.1963 38.6362 34.5084 38.0639 33.9361C37.4916 33.3638 36.8037 33.0776 36 33.0776C35.1963 33.0776 34.5084 33.3638 33.9361 33.9361C33.3638 34.5084 33.0776 35.1963 33.0776 36C33.0776 36.8037 33.3638 37.4916 33.9361 38.0639C34.5084 38.6362 35.1963 38.9224 36 38.9224Z" fill="white"/>
</g>
<defs>
<linearGradient id="paint0_linear_1180_782" x1="0" y1="36" x2="72" y2="36" gradientUnits="userSpaceOnUse">
<stop stop-color="#47DAFF"/>
<stop offset="0.25" stop-color="#38CAFF"/>
<stop offset="0.5" stop-color="#5CB7FF"/>
<stop offset="0.75" stop-color="#8DA0FF"/>
<stop offset="1" stop-color="#BA83F0"/>
</linearGradient>
</defs>
</svg>
