<svg width="72" height="72" viewBox="0 0 72 72" fill="none" xmlns="http://www.w3.org/2000/svg">
<rect width="72" height="72" rx="36" fill="white"/>
<g clip-path="url(#clip0_80_3084)">
<path d="M45.8651 29.0037C49.0019 31.3046 52.8447 32.6584 56.9949 32.6584V24.4636C56.2094 24.4637 55.426 24.3796 54.6576 24.2125V30.663C50.5076 30.663 46.6654 29.3094 43.5279 27.0087V43.7322C43.5279 52.0982 36.9185 58.8796 28.7661 58.8796C25.7243 58.8796 22.8968 57.936 20.5482 56.3175C23.2289 59.1301 26.9672 60.8748 31.1028 60.8748C39.2559 60.8748 45.8655 54.0934 45.8655 45.727V29.0037H45.8651ZM48.7486 20.7362C47.1455 18.9391 46.0929 16.6167 45.8651 14.0491V12.9951H43.6502C44.2078 16.2584 46.1097 19.0463 48.7486 20.7362ZM25.7046 49.8979C24.809 48.693 24.3248 47.2187 24.327 45.703C24.327 41.8768 27.3501 38.7744 31.0798 38.7744C31.7748 38.7741 32.4657 38.8836 33.1282 39.0991V30.721C32.354 30.6122 31.5727 30.5658 30.7918 30.5829V37.1039C30.129 36.8882 29.4378 36.7788 28.7424 36.7794C25.0129 36.7794 21.99 39.8815 21.99 43.7082C21.99 46.4141 23.5009 48.7567 25.7046 49.8979Z" fill="#FF004F"/>
<path d="M43.528 27.0086C46.6656 29.3093 50.5075 30.6629 54.6576 30.6629V24.2124C52.3411 23.706 50.2904 22.4639 48.7485 20.7362C46.1094 19.0462 44.2078 16.2582 43.6502 12.9951H37.8323V45.7267C37.8191 49.5425 34.8012 52.6322 31.0795 52.6322C28.8866 52.6322 26.9382 51.5596 25.7043 49.8977C23.501 48.7567 21.9899 46.4139 21.9899 43.7084C21.9899 39.882 25.0127 36.7796 28.7423 36.7796C29.4569 36.7796 30.1456 36.8937 30.7917 37.1041V30.583C22.7824 30.7529 16.3411 37.468 16.3411 45.7268C16.3411 49.8496 17.945 53.587 20.5484 56.3179C22.8971 57.936 25.7243 58.8799 28.7663 58.8799C36.9189 58.8799 43.5282 52.098 43.5282 43.7322L43.528 27.0086Z" fill="black"/>
<path d="M54.6578 24.2121V22.4683C52.5688 22.4715 50.5211 21.8712 48.7487 20.736C50.3176 22.4985 52.3834 23.7138 54.6578 24.2124M43.6502 12.9948C43.5971 12.683 43.5563 12.3692 43.528 12.054V11H35.4948V43.7319C35.482 47.5474 32.4642 50.6371 28.7423 50.6371C27.6872 50.6387 26.6465 50.3855 25.7043 49.8979C26.9382 51.5595 28.8866 52.6319 31.0795 52.6319C34.801 52.6319 37.8192 49.5426 37.8323 45.7267V12.995L43.6502 12.9948ZM30.7922 30.5828V28.726C30.1209 28.6318 29.4442 28.5847 28.7667 28.585C20.6133 28.585 14.004 35.3667 14.004 43.7319C14.004 48.9766 16.6015 53.5986 20.5488 56.3174C17.9454 53.5867 16.3414 49.8491 16.3414 45.7266C16.3414 37.4679 22.7825 30.7526 30.7922 30.5828Z" fill="#00F2EA"/>
</g>
<defs>
<clipPath id="clip0_80_3084">
<rect width="43" height="50" fill="white" transform="translate(14 11)"/>
</clipPath>
</defs>
</svg>
