<svg width="72" height="72" viewBox="0 0 72 72" fill="none" xmlns="http://www.w3.org/2000/svg">
<circle cx="36" cy="36" r="36" fill="url(#paint0_linear_1180_801)"/>
<path d="M50.6667 30.6667C50.6667 32.1333 49.4667 33.3333 48 33.3333C47.7699 33.3369 47.5406 33.3054 47.32 33.24L42.5733 37.9733C42.64 38.1867 42.6667 38.4267 42.6667 38.6667C42.6667 40.1333 41.4667 41.3333 40 41.3333C38.5333 41.3333 37.3333 40.1333 37.3333 38.6667C37.3333 38.4267 37.36 38.1867 37.4267 37.9733L34.0267 34.5733C33.8133 34.64 33.5733 34.6667 33.3333 34.6667C33.0933 34.6667 32.8533 34.64 32.64 34.5733L26.5733 40.6533C26.64 40.8667 26.6667 41.0933 26.6667 41.3333C26.6667 42.8 25.4667 44 24 44C22.5333 44 21.3333 42.8 21.3333 41.3333C21.3333 39.8667 22.5333 38.6667 24 38.6667C24.24 38.6667 24.4667 38.6933 24.68 38.76L30.76 32.6933C30.6933 32.48 30.6667 32.24 30.6667 32C30.6667 30.5333 31.8667 29.3333 33.3333 29.3333C34.8 29.3333 36 30.5333 36 32C36 32.24 35.9733 32.48 35.9067 32.6933L39.3067 36.0933C39.52 36.0267 39.76 36 40 36C40.24 36 40.48 36.0267 40.6933 36.0933L45.4267 31.3467C45.3612 31.1261 45.3297 30.8968 45.3333 30.6667C45.3333 29.2 46.5333 28 48 28C49.4667 28 50.6667 29.2 50.6667 30.6667Z" fill="white"/>
<defs>
<linearGradient id="paint0_linear_1180_801" x1="0" y1="36" x2="72" y2="36" gradientUnits="userSpaceOnUse">
<stop stop-color="#47DAFF"/>
<stop offset="0.25" stop-color="#38CAFF"/>
<stop offset="0.5" stop-color="#5CB7FF"/>
<stop offset="0.75" stop-color="#8DA0FF"/>
<stop offset="1" stop-color="#BA83F0"/>
</linearGradient>
</defs>
</svg>
